<svg width="50" height="63" viewBox="0 0 50 63" fill="none" xmlns="http://www.w3.org/2000/svg">
<circle cx="25" cy="25" r="25" fill="#91CAFF"/>
<path fill-rule="evenodd" clip-rule="evenodd" d="M29.5043 33.0471H29.4761V38.052C29.4761 38.7412 28.9182 39.3 28.23 39.3C27.5419 39.3 26.984 38.7412 26.984 38.052V33.0471H23.516V38.052C23.516 38.7412 22.9581 39.3 22.27 39.3C21.5818 39.3 21.0239 38.7412 21.0239 38.052V33.0471H20.9957V23.7849H16.9321C16.2439 23.7849 15.686 23.2261 15.686 22.5369C15.686 21.8476 16.2439 21.2889 16.9321 21.2889H33.5676C34.2557 21.2889 34.8136 21.8473 34.814 22.5365C34.814 23.2258 34.2561 23.7845 33.5679 23.7845H29.5043V33.0471ZM31.6903 25.9845V35.2471H31.6621V38.052C31.6621 39.9662 30.1156 41.5 28.23 41.5C26.9597 41.5 25.8433 40.8039 25.25 39.7643C24.6567 40.8039 23.5403 41.5 22.27 41.5C20.3844 41.5 18.8379 39.9662 18.8379 38.052V35.2471H18.8097V25.9849H16.9321C15.0465 25.9849 13.5 24.4511 13.5 22.5369C13.5 20.6227 15.0465 19.0889 16.9321 19.0889H20.5597C19.5479 17.9661 18.9307 16.4774 18.9307 14.8401C18.9307 11.3289 21.7694 8.5 25.25 8.5C28.7305 8.5 31.5693 11.3284 31.5693 14.8401C31.5693 16.4775 30.952 17.9662 29.9403 19.0889H33.5676C35.4526 19.0889 36.999 20.6215 37 22.5354V22.5365C37 24.4507 35.4535 25.9845 33.5679 25.9845H31.6903ZM25.25 10.7C22.9671 10.7 21.1167 12.5536 21.1167 14.8401C21.1167 17.1263 22.9667 18.9795 25.25 18.9795C27.5329 18.9795 29.3833 17.1266 29.3833 14.8401C29.3833 12.5532 27.5329 10.7 25.25 10.7Z" fill="white"/>
<path d="M18.8508 55.37H20.8408V54.69H15.9908V55.37H18.0408V56.51C18.0408 58.03 16.9608 59.73 15.6808 60.37L16.1608 61.02C17.1708 60.5 18.0408 59.36 18.4508 58.05C18.8608 59.25 19.7008 60.3 20.7008 60.8L21.1708 60.14C19.8708 59.53 18.8508 57.94 18.8508 56.51V55.37ZM24.2108 57.39H22.7308V53.78H21.9108V62.74H22.7308V58.08H24.2108V57.39ZM26.34 54.76H25.52V60.67H26.2C27.75 60.67 28.89 60.6 30.19 60.34L30.1 59.66C28.87 59.9 27.78 59.98 26.34 59.98V54.76ZM31.6 53.77V55.86H28.92V56.53H31.6V57.9H28.92V58.57H31.6V62.75H32.42V53.77H31.6Z" fill="#91CAFF"/>
</svg>
