<svg width="50" height="63" viewBox="0 0 50 63" fill="none"
    xmlns="http://www.w3.org/2000/svg">
    <circle cx="25" cy="25" r="25" fill="#FF9FCD"/>
    <path d="M35.5233 25.0463C38.1885 25.0463 40.3343 21.773 40.3343 19.0629C40.3343 16.4144 38.1763 14.2595 35.5233 14.2595C32.871 14.2595 30.713 16.4144 30.713 19.0629C30.713 21.773 32.8588 25.0463 35.5233 25.0463ZM35.5233 15.8173C37.3156 15.8173 38.7743 17.2731 38.7743 19.0629C38.7743 20.9952 37.1975 23.4886 35.5233 23.4886C33.849 23.4886 32.273 20.9952 32.273 19.0629C32.273 17.2731 33.7309 15.8173 35.5233 15.8173Z" fill="white"/>
    <path d="M42.5859 26.105V18.5525C42.5859 14.6638 39.4179 11.5 35.5232 11.5C31.6286 11.5 28.4606 14.6638 28.4606 18.5525V26.1054C27.3041 26.9325 26.5464 28.282 26.5464 29.8074V33.2211C26.5464 33.6513 26.8953 34 27.3264 34H43.7201C44.1512 34 44.5001 33.6513 44.5001 33.2211V29.8074C44.5001 28.2817 43.7425 26.932 42.5859 26.105ZM30.0206 18.5525C30.0206 15.5226 32.4893 13.0578 35.5232 13.0578C38.5572 13.0578 41.0259 15.5226 41.0259 18.5525V25.3886C40.6768 25.3029 40.3141 25.2524 39.9389 25.2524H31.1083C30.7329 25.2524 30.3699 25.303 30.0206 25.3888V18.5525ZM42.9401 32.4422H41.294V30.9351C41.294 30.5049 40.9452 30.1562 40.514 30.1562C40.0829 30.1562 39.734 30.5049 39.734 30.9351V32.4422H31.3132V30.9351C31.3132 30.5049 30.9644 30.1562 30.5332 30.1562C30.1021 30.1562 29.7532 30.5049 29.7532 30.9351V32.4422H28.1064V29.8074C28.1064 28.1546 29.4531 26.8102 31.1083 26.8102H39.9389C41.5941 26.8102 42.9401 28.1546 42.9401 29.8074V32.4422Z" fill="white"/>
    <path d="M14.4777 24.6348C17.5543 24.6348 20.0573 22.1354 20.0573 19.0629C20.0573 15.9903 17.5543 13.4909 14.4777 13.4909C11.4003 13.4909 8.89734 15.9903 8.89734 19.0629C8.89734 22.1354 11.4003 24.6348 14.4777 24.6348ZM14.4777 15.0487C16.6943 15.0487 18.4973 16.8495 18.4973 19.0629C18.4973 21.2763 16.6943 23.0771 14.4777 23.0771C12.2611 23.0771 10.4573 21.2763 10.4573 19.0629C10.4573 16.8495 12.2611 15.0487 14.4777 15.0487Z" fill="white"/>
    <path d="M22.6745 34C23.1057 34 23.4545 33.6512 23.4545 33.2211V29.8074C23.4545 27.2959 21.4078 25.2524 18.8926 25.2524H10.062C7.5468 25.2524 5.50006 27.2959 5.50006 29.8074V33.2211C5.50006 33.6512 5.84893 34 6.28006 34H22.6745ZM7.06006 29.8074C7.06006 28.1546 8.40678 26.8102 10.062 26.8102H18.8926C20.5478 26.8102 21.8945 28.1546 21.8945 29.8074V32.4422H20.2477V30.9351C20.2477 30.5049 19.8988 30.1562 19.4677 30.1562C19.0366 30.1562 18.6877 30.5049 18.6877 30.9351V32.4422H10.2669V30.9351C10.2669 30.5049 9.91803 30.1562 9.4869 30.1562C9.05576 30.1562 8.7069 30.5049 8.7069 30.9351V32.4422H7.06006V29.8074Z" fill="white"/>
    <path d="M23.1108 57.34H18.6608V56.02H23.1108V57.34ZM23.9308 54.13H23.1108V55.36H18.6608V54.13H17.8508V58.01H23.9308V54.13ZM24.9608 59.09H16.8208V59.75H20.4608V62.75H21.2808V59.75H24.9608V59.09ZM27.78 55.17H32.37V58.08H27.78V55.17ZM30.5 60.91V58.73H33.17V54.52H26.99V58.73H29.67V60.91H26.03V61.59H34.16V60.91H30.5Z" fill="#FF9FCD"/>
</svg>
